<svg version="1" xmlns="http://www.w3.org/2000/svg" width="3200" height="3200" viewBox="0 0 2400.000000 2400.000000"><path d="M224 1200v976h1952V224H224v976zm952-476v452H272V272h904v452zm0 952v452H272v-904h904v452zm952 0v452h-904v-904h904v452z"/><path d="M521 490.2c.1 5 .9 5.5 9.3 6 4.9.3 10.4 1.4 13.7 2.7 7.6 2.9 16.2 10.7 19.7 17.9l2.8 5.7.3 168c.2 106.8-.1 170.3-.7 174.4-1.9 12.1-9.8 23.4-20.2 28.6-4.8 2.5-14.3 4.5-21.1 4.5-3.5 0-3.8.2-3.8 3v3h110.3c119.3 0 122.4-.1 147.4-5.5 60.8-13.2 110.6-51.7 136.2-105.5 14.3-30.2 19.6-56.5 19.6-97-.1-27.5-1.4-38.5-7-60.5-18.1-70.4-73.9-123.6-146.7-139.9-27-6-24.2-5.9-147-6.3-92.1-.3-112.8-.2-112.8.9zm236.3 20.6c36.4 7.7 66.1 24.9 87.9 51.1 24.6 29.4 38.1 62.1 42.9 103.7 1.7 14.2 1.7 51.2 0 63.4-6.2 45.3-22.1 81.1-48.4 108.6-26.4 27.7-59.1 43.2-99.6 47.3-6 .7-36.1 1.1-72.2 1.1H606V507.9l70.3.3c68.4.4 70.5.4 81 2.6zM555.6 1434.2c-.3.7-10.4 86.8-22.6 191.3-16.5 141.4-22.6 191.5-24.1 195.9-6.3 18.5-22.3 28.5-45.6 28.6-5.2 0-5.3.1-5.3 3v3h116v-6h-7.2c-11.6 0-19.4-5.2-23.4-15.7-1.6-4.1-1.2-9.6 11.2-150.8l12.9-146.5 2.1 4.8c2.1 4.6 143.3 310.7 147 318.7 1.6 3.3 2.5 4.1 5.1 4.3 3.1.3 3.2.2 4.3-5.5 1.7-8.8 5.7-22 9.8-33 4.3-11.1 132.4-296.5 132.9-295.9.6.6 26.3 290.4 26.3 296.7 0 6.7-1.6 10.7-6.4 15.7-4.7 5-8.3 6.5-17.1 7.1-7.8.6-8 .7-8.3 3.3l-.3 2.8H993v-3c0-3 0-3-5.7-3-24.9 0-42.2-12.4-46.4-33-.6-3-11.3-90.6-23.8-194.5l-22.7-189-3-.3-3-.3-80.4 177.6c-44.2 97.6-80.6 177.5-81 177.5-.3 0-37.5-79.8-82.6-177.3l-82-177.2-3.2-.3c-2-.2-3.4.2-3.6 1zM1511 1444.3v3.5l8.8.4c6.7.3 10 1 14.4 3 11 5.1 19.4 16.2 21.8 28.8 1.3 7 1.4 330.2 0 338.3-2.5 15.8-15 28-31.1 30.7-3.5.5-8.1 1-10.1 1-3.5 0-3.8.2-3.8 3v3h130.7l-.5-2.9c-.4-2.8-.5-2.8-8.3-3.5-4.4-.4-10.5-1.6-13.7-2.8-7.7-2.9-16-10.9-19.8-19.1l-2.9-6.2-.3-180.8-.2-180.7h25.7c32.1.1 56 1.4 63.8 3.5 36.9 9.9 58 46.7 56.2 98-.7 20.4-4.2 32.2-14.2 47.6-13.3 20.6-34.9 32.8-65.5 36.9-4.7.7-17.2 1.3-27.7 1.3l-19.3.2v3.1c0 3.1.1 3.2 5.5 3.9 9.7 1.2 18.7 6.6 30.1 17.9 12.4 12.5 14.7 15.5 53.7 71.3 37.9 54.3 43.6 62 54 72.9 13.7 14.5 27.1 23.4 47.2 31.2 16.6 6.6 22.4 7.4 51.8 7.9l26.7.5v-3c0-3.3.1-3.3-13.5-4.7-7.1-.8-18.3-4.3-26.3-8.4-9.2-4.6-22.7-15.8-36.1-29.7-18.1-18.8-32.8-37.7-66.1-84.9-7.3-10.5-16.1-22.4-19.4-26.5-8.3-10.3-23-24.9-29.4-29.2l-5.2-3.5 7.7-.7c21.1-1.7 40.2-11.5 57-28.9 16.5-17.2 26.6-36.5 31.9-60.7 2.8-12.9 2.6-42.3-.4-54.2-9.4-37.6-35-64.6-71.2-75.1-17.2-5-16.7-5-112.2-5.4l-89.8-.4v3.4z"/></svg>